<?xml version="1.0" standalone="no"?><!DOCTYPE svg PUBLIC "-//W3C//DTD SVG 1.1//EN" "http://www.w3.org/Graphics/SVG/1.1/DTD/svg11.dtd"><svg t="1595424230738" class="icon" viewBox="0 0 1024 1024" version="1.1" xmlns="http://www.w3.org/2000/svg" p-id="2098" xmlns:xlink="http://www.w3.org/1999/xlink" width="200" height="200"><defs><style type="text/css"></style></defs><path d="M696 285.6L285.8 695.8c-11.7 11.7-11.7 30.8 0 42.4 11.7 11.7 30.8 11.7 42.4 0L738.4 328c11.7-11.7 11.7-30.8 0-42.4-11.6-11.7-30.7-11.7-42.4 0z" p-id="2099"></path><path d="M328.2 285.6l410.2 410.2c11.7 11.7 11.7 30.8 0 42.4-11.7 11.7-30.8 11.7-42.4 0L285.8 328c-11.7-11.7-11.7-30.8 0-42.4 11.6-11.7 30.7-11.7 42.4 0z" p-id="2100"></path></svg>